<?xml version="1.0" encoding="UTF-8"?>
<svg xmlns="http://www.w3.org/2000/svg" xmlns:xlink="http://www.w3.org/1999/xlink" width="250px" height="250px" viewBox="0 0 250 250" version="1.1">
<g id="surface1">
<path style=" stroke:none;fill-rule:nonzero;fill:rgb(85.098039%,14.901961%,14.901961%);fill-opacity:1;" d="M 145.605469 250.6875 C 97.085938 250.6875 48.910156 250.6875 0.710938 250.6875 C 0.710938 167.398438 0.710938 84.109375 0.710938 0.753906 C 83.945312 0.753906 167.207031 0.753906 250.574219 0.753906 C 250.574219 84.019531 250.574219 167.351562 250.574219 250.6875 C 215.75 250.6875 180.847656 250.6875 145.605469 250.6875 M 68.753906 82.128906 C 60.46875 93.070312 55.480469 105.367188 54.332031 119.027344 C 50.292969 167.066406 91.828125 204.816406 139.34375 196.378906 C 147.875 194.867188 155.839844 191.734375 163.25 187.25 C 167.703125 184.550781 169.105469 179.917969 166.835938 175.804688 C 164.527344 171.625 159.679688 170.492188 154.921875 173.035156 C 154.015625 173.519531 153.128906 174.042969 152.222656 174.527344 C 141.023438 180.511719 129.136719 182.496094 116.664062 180.246094 C 93.644531 176.089844 76.347656 159.242188 71.671875 136.683594 C 67.117188 114.722656 76.652344 92.292969 96.074219 79.277344 C 100.671875 76.199219 102 71.222656 99.296875 67.210938 C 96.507812 63.074219 91.652344 62.316406 86.929688 65.355469 C 80.035156 69.789062 74.0625 75.242188 68.753906 82.128906 M 188.21875 156.855469 C 183.988281 154.386719 180.960938 154.355469 177.820312 156.839844 C 175.085938 159.003906 173.890625 161.816406 174.695312 165.28125 C 175.515625 168.800781 178.335938 171.351562 181.765625 171.816406 C 185.136719 172.273438 188.785156 170.433594 190.382812 167.472656 C 192.242188 164.027344 191.695312 160.863281 188.21875 156.855469 Z M 188.21875 156.855469 "/>
<path style=" stroke:none;fill-rule:nonzero;fill:rgb(99.607843%,98.823529%,98.823529%);fill-opacity:1;" d="M 68.902344 81.9375 C 74.0625 75.242188 80.035156 69.789062 86.929688 65.355469 C 91.652344 62.316406 96.507812 63.074219 99.296875 67.210938 C 102 71.222656 100.671875 76.199219 96.074219 79.277344 C 76.652344 92.292969 67.117188 114.722656 71.671875 136.683594 C 76.347656 159.242188 93.644531 176.089844 116.664062 180.246094 C 129.136719 182.496094 141.023438 180.511719 152.222656 174.527344 C 153.128906 174.042969 154.015625 173.519531 154.921875 173.035156 C 159.679688 170.492188 164.527344 171.625 166.835938 175.804688 C 169.105469 179.917969 167.703125 184.550781 163.25 187.25 C 155.839844 191.734375 147.875 194.867188 139.34375 196.378906 C 91.828125 204.816406 50.292969 167.066406 54.332031 119.027344 C 55.480469 105.367188 60.46875 93.070312 68.902344 81.9375 Z M 68.902344 81.9375 "/>
<path style=" stroke:none;fill-rule:nonzero;fill:rgb(99.607843%,98.039216%,98.039216%);fill-opacity:1;" d="M 188.40625 157.019531 C 191.695312 160.863281 192.242188 164.027344 190.382812 167.472656 C 188.785156 170.433594 185.136719 172.273438 181.765625 171.816406 C 178.335938 171.351562 175.515625 168.800781 174.695312 165.28125 C 173.890625 161.816406 175.085938 159.003906 177.820312 156.839844 C 180.960938 154.355469 183.988281 154.386719 188.40625 157.019531 Z M 188.40625 157.019531 "/>
</g>
</svg>
