<?xml version="1.0" encoding="UTF-8"?>
<svg xmlns="http://www.w3.org/2000/svg" xmlns:xlink="http://www.w3.org/1999/xlink" width="250px" height="250px" viewBox="0 0 250 250" version="1.1">
<g id="surface1">
<path style=" stroke:none;fill-rule:nonzero;fill:rgb(2.352941%,57.647059%,33.72549%);fill-opacity:1;" d="M 250 125 C 250 194.035156 194.035156 250 125 250 C 55.964844 250 0 194.035156 0 125 C 0 55.964844 55.964844 0 125 0 C 194.035156 0 250 55.964844 250 125 Z M 250 125 "/>
<path style=" stroke:none;fill-rule:nonzero;fill:rgb(92.54902%,99.607843%,95.294118%);fill-opacity:1;" d="M 94.691406 169.371094 L 94.691406 81.21875 L 127.75 81.21875 C 134.523438 81.21875 140.203125 82.480469 144.792969 85.007812 C 149.414062 87.53125 152.902344 91.003906 155.253906 95.421875 C 157.636719 99.8125 158.828125 104.804688 158.828125 110.402344 C 158.828125 116.054688 157.636719 121.078125 155.253906 125.46875 C 152.871094 129.859375 149.359375 133.316406 144.710938 135.839844 C 140.058594 138.335938 134.335938 139.585938 127.535156 139.585938 L 105.625 139.585938 L 105.625 126.457031 L 125.382812 126.457031 C 129.34375 126.457031 132.585938 125.769531 135.109375 124.390625 C 137.636719 123.011719 139.5 121.121094 140.707031 118.710938 C 141.9375 116.300781 142.558594 113.53125 142.558594 110.402344 C 142.558594 107.273438 141.9375 104.519531 140.707031 102.136719 C 139.5 99.757812 137.621094 97.90625 135.066406 96.585938 C 132.542969 95.238281 129.285156 94.5625 125.296875 94.5625 L 110.660156 94.5625 L 110.660156 169.371094 Z M 94.691406 169.371094 "/>
</g>
</svg>
